<svg width="175" height="175" viewBox="0 0 175 175" fill="none" xmlns="http://www.w3.org/2000/svg">
<g clip-path="url(#clip0_62_246)">
<path fill-rule="evenodd" clip-rule="evenodd" d="M108.03 13.3211C129.262 4.52651 152.019 0 175 0V37.0009C99.2908 37.2704 38 98.7276 38 174.5C38 174.667 38 174.833 38.001 175H0C0 152.019 4.527 129.262 13.321 108.03C22.116 86.7984 35.006 67.5066 51.256 51.2563C67.507 35.0061 86.7984 22.1157 108.03 13.3211Z" fill="#F47474"/>
<path fill-rule="evenodd" clip-rule="evenodd" d="M108.03 13.3211C129.262 4.52651 152.019 0 175 0V37.0009C99.2908 37.2704 38 98.7276 38 174.5C38 174.667 38 174.833 38.001 175H0C0 152.019 4.527 129.262 13.321 108.03C22.116 86.7984 35.006 67.5066 51.256 51.2563C67.507 35.0061 86.7984 22.1157 108.03 13.3211Z" fill="#74CEF4"/>
</g>
<defs>
<clipPath id="clip0_62_246">
<rect width="175" height="175" fill="white" transform="matrix(0 1 -1 0 175 0)"/>
</clipPath>
</defs>
</svg>
