<svg width="88" height="46" viewBox="0 0 88 46" fill="none" xmlns="http://www.w3.org/2000/svg">
<g filter="url(#filter0_d_64_280)">
<path fill-rule="evenodd" clip-rule="evenodd" d="M10.0174 -4.61362e-07C4.41481 -4.61362e-07 1.86399 6.99333 6.15088 10.6005L33.9409 33.9844C39.5227 38.6813 47.6743 38.6813 53.2561 33.9844L81.0461 10.6005C85.333 6.99333 82.7822 -4.61362e-07 77.1796 -4.61362e-07V-4.61362e-07C75.7648 -4.61362e-07 74.3955 0.49946 73.313 1.41033L53.2561 18.2872C47.6743 22.9841 39.5227 22.984 33.9409 18.2872L13.884 1.41033C12.8015 0.499457 11.4322 -4.61362e-07 10.0174 -4.61362e-07V-4.61362e-07Z" fill="#D9D9D9"/>
</g>
<defs>
<filter id="filter0_d_64_280" x="0" y="0" width="87.197" height="45.5071" filterUnits="userSpaceOnUse" color-interpolation-filters="sRGB">
<feFlood flood-opacity="0" result="BackgroundImageFix"/>
<feColorMatrix in="SourceAlpha" type="matrix" values="0 0 0 0 0 0 0 0 0 0 0 0 0 0 0 0 0 0 127 0" result="hardAlpha"/>
<feOffset dy="4"/>
<feGaussianBlur stdDeviation="2"/>
<feComposite in2="hardAlpha" operator="out"/>
<feColorMatrix type="matrix" values="0 0 0 0 0 0 0 0 0 0 0 0 0 0 0 0 0 0 0.25 0"/>
<feBlend mode="normal" in2="BackgroundImageFix" result="effect1_dropShadow_64_280"/>
<feBlend mode="normal" in="SourceGraphic" in2="effect1_dropShadow_64_280" result="shape"/>
</filter>
</defs>
</svg>
