<svg width="205" height="22" viewBox="0 0 205 22" fill="none" xmlns="http://www.w3.org/2000/svg">
<path d="M19.08 0.230001V21.1744H13.98V12.3194H5.1V21.1744H0V0.230001H5.1V8.98438H13.98V0.230001H19.08ZM28.4203 21.1744H23.3203V0.230001H28.4203V21.1744ZM39.7467 10.0769C40.4367 10.0769 41.0217 9.99542 41.5017 9.8325C41.9917 9.66 42.3917 9.42521 42.7017 9.12813C43.0117 8.83104 43.2367 8.48604 43.3767 8.09313C43.5167 7.69063 43.5867 7.25938 43.5867 6.79938C43.5867 5.87938 43.2717 5.16063 42.6417 4.64313C42.0217 4.12563 41.0567 3.86688 39.7467 3.86688H37.7067V10.0769H39.7467ZM50.5167 21.1744H45.9267C45.0767 21.1744 44.4667 20.8677 44.0967 20.2544L40.4667 14.1738C40.2967 13.915 40.1067 13.7281 39.8967 13.6131C39.6867 13.4885 39.3867 13.4263 38.9967 13.4263H37.7067V21.1744H32.6367V0.230001H39.7467C41.3267 0.230001 42.6717 0.388126 43.7817 0.704376C44.9017 1.01104 45.8117 1.44229 46.5117 1.99813C47.2217 2.55396 47.7367 3.21042 48.0567 3.9675C48.3767 4.72458 48.5367 5.54875 48.5367 6.44C48.5367 7.12042 48.4417 7.7625 48.2517 8.36625C48.0617 8.97 47.7817 9.53063 47.4117 10.0481C47.0417 10.556 46.5817 11.0113 46.0317 11.4138C45.4917 11.8163 44.8667 12.1469 44.1567 12.4056C44.4867 12.5685 44.7967 12.7746 45.0867 13.0238C45.3767 13.2633 45.6367 13.5508 45.8667 13.8863L50.5167 21.1744ZM73.4227 10.695C73.4227 12.2092 73.1477 13.6179 72.5977 14.9213C72.0577 16.2246 71.2927 17.3602 70.3027 18.3281C69.3127 19.2865 68.1177 20.0388 66.7177 20.585C65.3277 21.1313 63.7827 21.4044 62.0827 21.4044C60.3827 21.4044 58.8327 21.1313 57.4327 20.585C56.0327 20.0388 54.8327 19.2865 53.8327 18.3281C52.8427 17.3602 52.0727 16.2246 51.5227 14.9213C50.9827 13.6179 50.7127 12.2092 50.7127 10.695C50.7127 9.18083 50.9827 7.77208 51.5227 6.46875C52.0727 5.16542 52.8427 4.03458 53.8327 3.07625C54.8327 2.11792 56.0327 1.36563 57.4327 0.819376C58.8327 0.273126 60.3827 0 62.0827 0C63.7827 0 65.3277 0.277918 66.7177 0.833751C68.1177 1.38 69.3127 2.13229 70.3027 3.09063C71.2927 4.04896 72.0577 5.17979 72.5977 6.48313C73.1477 7.78646 73.4227 9.19042 73.4227 10.695ZM68.2327 10.695C68.2327 9.66 68.0927 8.73042 67.8127 7.90625C67.5327 7.0725 67.1277 6.36813 66.5977 5.79313C66.0777 5.21813 65.4377 4.77729 64.6777 4.47063C63.9177 4.16396 63.0527 4.01063 62.0827 4.01063C61.1027 4.01063 60.2277 4.16396 59.4577 4.47063C58.6977 4.77729 58.0527 5.21813 57.5227 5.79313C57.0027 6.36813 56.6027 7.0725 56.3227 7.90625C56.0427 8.73042 55.9027 9.66 55.9027 10.695C55.9027 11.7396 56.0427 12.6788 56.3227 13.5125C56.6027 14.3367 57.0027 15.0363 57.5227 15.6113C58.0527 16.1863 58.6977 16.6271 59.4577 16.9338C60.2277 17.2308 61.1027 17.3794 62.0827 17.3794C63.0527 17.3794 63.9177 17.2308 64.6777 16.9338C65.4377 16.6271 66.0777 16.1863 66.5977 15.6113C67.1277 15.0363 67.5327 14.3367 67.8127 13.5125C68.0927 12.6788 68.2327 11.7396 68.2327 10.695ZM98.1464 4.0825H91.9964V21.1744H86.9264V4.0825H80.7764V0.230001H98.1464V4.0825ZM105.823 3.9675V8.855H112.693V12.4488H105.823V17.4369H114.793V21.1744H100.723V0.230001H114.793V3.9675H105.823ZM129.47 13.1675L127.445 7.43188C127.295 7.06771 127.135 6.64125 126.965 6.1525C126.795 5.65417 126.625 5.1175 126.455 4.5425C126.305 5.12708 126.145 5.66854 125.975 6.16688C125.805 6.66521 125.645 7.09646 125.495 7.46063L123.485 13.1675H129.47ZM137.525 21.1744H133.595C133.155 21.1744 132.8 21.0785 132.53 20.8869C132.26 20.6856 132.055 20.4317 131.915 20.125L130.625 16.4738H122.315L121.025 20.125C120.915 20.3933 120.715 20.6377 120.425 20.8581C120.145 21.069 119.795 21.1744 119.375 21.1744H115.415L123.875 0.230001H129.065L137.525 21.1744ZM153.806 17.5088C154.476 17.5088 155.021 17.4273 155.441 17.2644C155.871 17.1015 156.206 16.8906 156.446 16.6319C156.686 16.3731 156.851 16.0808 156.941 15.755C157.031 15.4292 157.076 15.0985 157.076 14.7631C157.076 14.3798 157.021 14.0348 156.911 13.7281C156.811 13.4215 156.631 13.1627 156.371 12.9519C156.121 12.741 155.786 12.5781 155.366 12.4631C154.946 12.3481 154.416 12.2906 153.776 12.2906H150.236V17.5088H153.806ZM150.236 3.86688V9.04188H152.876C153.436 9.04188 153.941 9.00354 154.391 8.92688C154.841 8.85021 155.221 8.71604 155.531 8.52438C155.851 8.33271 156.091 8.06917 156.251 7.73375C156.421 7.39833 156.506 6.97667 156.506 6.46875C156.506 5.97042 156.441 5.55833 156.311 5.2325C156.181 4.89708 155.981 4.62875 155.711 4.4275C155.441 4.22625 155.096 4.0825 154.676 3.99625C154.266 3.91 153.776 3.86688 153.206 3.86688H150.236ZM153.206 0.230001C154.716 0.230001 156.001 0.364168 157.061 0.632501C158.121 0.900834 158.986 1.27938 159.656 1.76813C160.326 2.25688 160.811 2.85104 161.111 3.55063C161.421 4.25021 161.576 5.03125 161.576 5.89375C161.576 6.36333 161.506 6.81854 161.366 7.25938C161.226 7.69063 161.006 8.09792 160.706 8.48125C160.406 8.855 160.021 9.2 159.551 9.51625C159.081 9.8325 158.516 10.1056 157.856 10.3356C159.296 10.671 160.361 11.2125 161.051 11.96C161.741 12.7075 162.086 13.6754 162.086 14.8638C162.086 15.755 161.906 16.584 161.546 17.3506C161.186 18.1173 160.656 18.7881 159.956 19.3631C159.266 19.9285 158.411 20.3742 157.391 20.7C156.371 21.0162 155.206 21.1744 153.896 21.1744H145.166V0.230001H153.206ZM176.433 13.1675L174.408 7.43188C174.258 7.06771 174.098 6.64125 173.928 6.1525C173.758 5.65417 173.588 5.1175 173.418 4.5425C173.268 5.12708 173.108 5.66854 172.938 6.16688C172.768 6.66521 172.608 7.09646 172.458 7.46063L170.448 13.1675H176.433ZM184.488 21.1744H180.558C180.118 21.1744 179.763 21.0785 179.493 20.8869C179.223 20.6856 179.018 20.4317 178.878 20.125L177.588 16.4738H169.278L167.988 20.125C167.878 20.3933 167.678 20.6377 167.388 20.8581C167.108 21.069 166.758 21.1744 166.338 21.1744H162.378L170.838 0.230001H176.028L184.488 21.1744ZM193.321 10.0769C194.011 10.0769 194.596 9.99542 195.076 9.8325C195.566 9.66 195.966 9.42521 196.276 9.12813C196.586 8.83104 196.811 8.48604 196.951 8.09313C197.091 7.69063 197.161 7.25938 197.161 6.79938C197.161 5.87938 196.846 5.16063 196.216 4.64313C195.596 4.12563 194.631 3.86688 193.321 3.86688H191.281V10.0769H193.321ZM204.091 21.1744H199.501C198.651 21.1744 198.041 20.8677 197.671 20.2544L194.041 14.1738C193.871 13.915 193.681 13.7281 193.471 13.6131C193.261 13.4885 192.961 13.4263 192.571 13.4263H191.281V21.1744H186.211V0.230001H193.321C194.901 0.230001 196.246 0.388126 197.356 0.704376C198.476 1.01104 199.386 1.44229 200.086 1.99813C200.796 2.55396 201.311 3.21042 201.631 3.9675C201.951 4.72458 202.111 5.54875 202.111 6.44C202.111 7.12042 202.016 7.7625 201.826 8.36625C201.636 8.97 201.356 9.53063 200.986 10.0481C200.616 10.556 200.156 11.0113 199.606 11.4138C199.066 11.8163 198.441 12.1469 197.731 12.4056C198.061 12.5685 198.371 12.7746 198.661 13.0238C198.951 13.2633 199.211 13.5508 199.441 13.8863L204.091 21.1744Z" fill="black"/>
</svg>
